<svg width="70" height="78" viewBox="0 0 70 78" fill="none" xmlns="http://www.w3.org/2000/svg">
<path d="M6.04102 77.7832C6.95898 77.7832 7.83105 77.6149 8.65723 77.2783C9.4834 76.9723 10.3555 76.5439 11.2734 75.9932L64.791 45.0576C66.7188 43.9255 68.0498 42.931 68.7842 42.0742C69.5492 41.1868 69.9316 40.1312 69.9316 38.9072C69.9316 37.6833 69.5492 36.6429 68.7842 35.7861C68.0498 34.8988 66.7188 33.9043 64.791 32.8027L11.2734 1.82129C10.3555 1.30111 9.4834 0.888021 8.65723 0.582031C7.83105 0.245443 6.95898 0.0771484 6.04102 0.0771484C4.35807 0.0771484 3.01172 0.673828 2.00195 1.86719C1.02279 3.06055 0.533203 4.65169 0.533203 6.64062V71.1738C0.533203 73.1628 1.02279 74.7539 2.00195 75.9473C3.01172 77.1712 4.35807 77.7832 6.04102 77.7832Z" fill="#B16FF8"/>
</svg>
