<svg width="86" height="106" viewBox="0 0 86 106" fill="none" xmlns="http://www.w3.org/2000/svg">
<path d="M49.334 105.009C49.946 105.009 50.4508 104.81 50.8486 104.412C51.2464 104.045 51.5065 103.54 51.6289 102.897C52.2715 97.8792 52.9906 93.6413 53.7861 90.1836C54.6123 86.7259 55.6833 83.8802 56.999 81.6465C58.3454 79.4128 60.1201 77.638 62.3232 76.3223C64.5264 74.9759 67.3262 73.9202 70.7227 73.1553C74.1191 72.3903 78.3112 71.7324 83.2988 71.1816C83.9414 71.1204 84.4616 70.8757 84.8594 70.4473C85.2572 70.0189 85.4561 69.4987 85.4561 68.8867C85.4561 68.3053 85.2572 67.8005 84.8594 67.3721C84.4616 66.9437 83.9414 66.6989 83.2988 66.6377C78.3112 66.0869 74.1191 65.429 70.7227 64.6641C67.3262 63.8991 64.5264 62.8434 62.3232 61.4971C60.1201 60.1507 58.3454 58.3607 56.999 56.127C55.6833 53.8932 54.6123 51.0628 53.7861 47.6357C52.9906 44.1781 52.2715 39.9248 51.6289 34.876C51.5065 34.264 51.2464 33.7744 50.8486 33.4072C50.4508 33.0094 49.946 32.8105 49.334 32.8105C48.7526 32.8105 48.2477 33.0094 47.8193 33.4072C47.4215 33.7744 47.1768 34.264 47.085 34.876C46.4424 39.9248 45.708 44.1781 44.8818 47.6357C44.0863 51.0628 43.0153 53.8932 41.6689 56.127C40.3226 58.3607 38.5479 60.1507 36.3447 61.4971C34.1416 62.8434 31.3418 63.8991 27.9453 64.6641C24.5488 65.429 20.3721 66.0869 15.415 66.6377C14.7419 66.6989 14.2064 66.9437 13.8086 67.3721C13.4108 67.8005 13.2119 68.3053 13.2119 68.8867C13.2119 69.4987 13.4108 70.0189 13.8086 70.4473C14.2064 70.8757 14.7419 71.1204 15.415 71.1816C20.3721 71.8242 24.5335 72.5586 27.8994 73.3848C31.2959 74.1803 34.0804 75.236 36.2529 76.5518C38.4561 77.8675 40.2308 79.627 41.5771 81.8301C42.9235 84.0332 43.9945 86.833 44.79 90.2295C45.6162 93.6566 46.3812 97.8792 47.085 102.897C47.1768 103.54 47.4215 104.045 47.8193 104.412C48.2477 104.81 48.7526 105.009 49.334 105.009ZM18.2148 54.2451C18.6432 54.2451 18.9951 54.1074 19.2705 53.832C19.5459 53.5566 19.7142 53.2201 19.7754 52.8223C20.1732 49.7624 20.5863 47.3757 21.0146 45.6621C21.443 43.9486 22.1009 42.6634 22.9883 41.8066C23.9062 40.9193 25.2526 40.2461 27.0273 39.7871C28.8327 39.2975 31.3265 38.7467 34.5088 38.1348C35.4268 37.9512 35.8857 37.431 35.8857 36.5742C35.8857 36.1458 35.748 35.7939 35.4727 35.5186C35.2279 35.2432 34.9066 35.0902 34.5088 35.0596C31.3265 34.6006 28.8327 34.1569 27.0273 33.7285C25.222 33.3001 23.8604 32.6423 22.9424 31.7549C22.055 30.8369 21.3971 29.4906 20.9688 27.7158C20.571 25.9411 20.1732 23.5085 19.7754 20.418C19.653 19.4388 19.1328 18.9492 18.2148 18.9492C17.2969 18.9492 16.7767 19.4541 16.6543 20.4639C16.2871 23.5238 15.8893 25.9105 15.4609 27.624C15.0326 29.307 14.3594 30.5768 13.4414 31.4336C12.5234 32.2904 11.1618 32.9635 9.35645 33.4531C7.55111 33.9121 5.07259 34.4476 1.9209 35.0596C1.00293 35.2126 0.543945 35.7174 0.543945 36.5742C0.543945 37.4616 1.06413 37.9818 2.10449 38.1348C5.22559 38.6549 7.6735 39.1445 9.44824 39.6035C11.2536 40.0625 12.5999 40.7357 13.4873 41.623C14.4053 42.4798 15.0632 43.7803 15.4609 45.5244C15.8893 47.2686 16.2871 49.6706 16.6543 52.7305C16.7767 53.7402 17.2969 54.2451 18.2148 54.2451ZM40.4297 22.667C40.9805 22.667 41.3171 22.361 41.4395 21.749C41.776 19.8825 42.082 18.4137 42.3574 17.3428C42.6328 16.2718 43.0306 15.4609 43.5508 14.9102C44.1016 14.3288 44.9277 13.8698 46.0293 13.5332C47.1309 13.1966 48.6761 12.86 50.665 12.5234C51.277 12.401 51.583 12.0492 51.583 11.4678C51.583 10.917 51.277 10.5804 50.665 10.458C48.6761 10.0908 47.1309 9.75423 46.0293 9.44824C44.9277 9.11165 44.1016 8.66797 43.5508 8.11719C43.0306 7.53581 42.6328 6.70964 42.3574 5.63867C42.082 4.56771 41.776 3.09896 41.4395 1.23242C41.3171 0.620443 40.9805 0.314453 40.4297 0.314453C39.8483 0.314453 39.5117 0.620443 39.4199 1.23242C39.0527 3.09896 38.7314 4.56771 38.4561 5.63867C38.2113 6.70964 37.8135 7.53581 37.2627 8.11719C36.7425 8.66797 35.9316 9.11165 34.8301 9.44824C33.7285 9.75423 32.1833 10.0908 30.1943 10.458C29.5824 10.5804 29.2764 10.917 29.2764 11.4678C29.2764 12.0492 29.5824 12.401 30.1943 12.5234C32.1833 12.86 33.7285 13.1966 34.8301 13.5332C35.9316 13.8698 36.7425 14.3288 37.2627 14.9102C37.8135 15.4609 38.2113 16.2718 38.4561 17.3428C38.7314 18.4137 39.0527 19.8825 39.4199 21.749C39.5117 22.361 39.8483 22.667 40.4297 22.667Z" fill="#B16FF8"/>
</svg>
